<svg width="18" height="10" viewBox="0 0 18 10" fill="none" xmlns="http://www.w3.org/2000/svg">
<path d="M15.2006 0.406722C15.3083 0.279143 15.4426 0.176613 15.5941 0.106282C15.7456 0.0359516 15.9106 -0.000484467 16.0776 -0.000484467C16.2446 -0.000484467 16.4096 0.0359516 16.561 0.106282C16.7125 0.176613 16.8468 0.279143 16.9546 0.406722C17.1889 0.680622 17.3177 1.02924 17.3177 1.38972C17.3177 1.7502 17.1889 2.09882 16.9546 2.37272L11.2696 8.74772C10.9463 9.13029 10.5434 9.43773 10.0891 9.64861C9.63478 9.8595 9.13994 9.96875 8.63906 9.96875C8.13819 9.96875 7.64334 9.8595 7.18902 9.64861C6.73471 9.43773 6.33186 9.13029 6.00856 8.74772L0.320562 2.36872C0.105498 2.09322 -0.00762108 1.75179 0.00039892 1.40237C0.00841892 1.05295 0.137084 0.717072 0.364562 0.451722C0.468858 0.328387 0.598048 0.228493 0.74366 0.158589C0.889271 0.088686 1.04801 0.0503521 1.20948 0.0461035C1.37095 0.0418549 1.53149 0.071785 1.68057 0.133933C1.82966 0.196081 1.96392 0.289043 2.07456 0.406722L7.76256 6.78172C7.87033 6.9093 8.00463 7.01183 8.1561 7.08216C8.30757 7.15249 8.47256 7.18893 8.63956 7.18893C8.80656 7.18893 8.97156 7.15249 9.12303 7.08216C9.2745 7.01183 9.4088 6.9093 9.51656 6.78172L15.2006 0.406722Z" fill="#1E1E1E"/>
</svg>
