<svg width="24" height="24" viewBox="0 0 24 24" fill="none" xmlns="http://www.w3.org/2000/svg">
<path fill-rule="evenodd" clip-rule="evenodd" d="M8 6C7.44772 6 7 6.44772 7 7V12V17C7 17.5523 7.44772 18 8 18H13.5C15.433 18 17 16.433 17 14.5C17 13.247 16.3416 12.1478 15.3519 11.5295C15.7599 10.9571 16 10.2566 16 9.5C16 7.567 14.433 6 12.5 6H8ZM12.5 11C13.3284 11 14 10.3284 14 9.5C14 8.67157 13.3284 8 12.5 8H9V11H12.5ZM9 13V16H13.5C14.3284 16 15 15.3284 15 14.5C15 13.6716 14.3284 13 13.5 13H12.5H9Z" fill="#282C3F"/>
</svg>
