<svg width="10" height="8" viewBox="0 0 10 8" fill="none" xmlns="http://www.w3.org/2000/svg">
<path d="M8.93459 1.43269L3.73459 7.13268C3.65452 7.22691 3.55491 7.30262 3.44267 7.35453C3.33043 7.40644 3.20825 7.43333 3.08459 7.43333C2.96093 7.43333 2.83875 7.40644 2.72651 7.35453C2.61428 7.30262 2.51467 7.22691 2.43459 7.13268L0.234594 4.68469C0.0754644 4.5123 -0.00866927 4.28375 0.000707551 4.04933C0.0100844 3.81491 0.112199 3.59382 0.28459 3.43469C0.45698 3.27556 0.685522 3.19143 0.919943 3.2008C1.15436 3.21018 1.37546 3.3123 1.53459 3.48469L3.08359 5.23369L7.63059 0.287689C7.70874 0.201466 7.8033 0.13168 7.90872 0.0824045C8.01414 0.0331294 8.12833 0.00535614 8.2446 0.000701308C8.36088 -0.00395352 8.47692 0.0145993 8.58594 0.0552896C8.69497 0.0959799 8.7948 0.157986 8.87959 0.237686C9.04184 0.390911 9.13825 0.601145 9.14851 0.824073C9.15877 1.047 9.08208 1.2652 8.93459 1.43269Z" fill="#0061FF"/>
</svg>
