<svg width="52" height="52" viewBox="0 0 52 52" fill="none" xmlns="http://www.w3.org/2000/svg">
<circle cx="26" cy="26" r="25.5" fill="#282C3F" stroke="#535665"/>
<path d="M19.7241 30.3907L24.1147 26.0001L19.7241 21.6094C19.5967 21.4864 19.4951 21.3393 19.4253 21.1766C19.3554 21.0139 19.3186 20.839 19.3171 20.6619C19.3155 20.4849 19.3492 20.3093 19.4163 20.1455C19.4833 19.9816 19.5823 19.8327 19.7075 19.7075C19.8327 19.5823 19.9816 19.4833 20.1455 19.4163C20.3093 19.3492 20.4849 19.3155 20.6619 19.3171C20.839 19.3186 21.0139 19.3554 21.1766 19.4253C21.3393 19.4951 21.4864 19.5967 21.6094 19.7241L26.0001 24.1147L30.3907 19.7241C30.5137 19.5967 30.6608 19.4951 30.8235 19.4253C30.9862 19.3554 31.1611 19.3186 31.3382 19.3171C31.5152 19.3155 31.6908 19.3492 31.8547 19.4163C32.0185 19.4833 32.1674 19.5823 32.2926 19.7075C32.4178 19.8327 32.5168 19.9816 32.5838 20.1455C32.6509 20.3093 32.6846 20.4849 32.6831 20.6619C32.6815 20.839 32.6447 21.0139 32.5749 21.1766C32.505 21.3393 32.4034 21.4864 32.2761 21.6094L27.8854 26.0001L32.2761 30.3907C32.4034 30.5137 32.505 30.6608 32.5749 30.8235C32.6447 30.9862 32.6815 31.1611 32.6831 31.3382C32.6846 31.5152 32.6509 31.6908 32.5838 31.8547C32.5168 32.0185 32.4178 32.1674 32.2926 32.2926C32.1674 32.4178 32.0185 32.5168 31.8547 32.5838C31.6908 32.6509 31.5152 32.6846 31.3382 32.6831C31.1611 32.6815 30.9862 32.6447 30.8235 32.5749C30.6608 32.505 30.5137 32.4034 30.3907 32.2761L26.0001 27.8854L21.6094 32.2761C21.4864 32.4034 21.3393 32.505 21.1766 32.5749C21.0139 32.6447 20.839 32.6815 20.6619 32.6831C20.4849 32.6846 20.3093 32.6509 20.1455 32.5838C19.9816 32.5168 19.8327 32.4178 19.7075 32.2926C19.5823 32.1674 19.4833 32.0185 19.4163 31.8547C19.3492 31.6908 19.3155 31.5152 19.3171 31.3382C19.3186 31.1611 19.3554 30.9862 19.4253 30.8235C19.4951 30.6608 19.5967 30.5137 19.7241 30.3907Z" fill="white"/>
</svg>
