<svg width="23" height="23" viewBox="0 0 23 23" fill="none" xmlns="http://www.w3.org/2000/svg">
<path d="M18.6747 2.88857H17.7607V1.05957H15.9387V2.88857H6.81974V1.05957H4.99674V2.88857H4.08474C3.60077 2.89068 3.1373 3.08422 2.79555 3.42691C2.4538 3.7696 2.26153 4.2336 2.26074 4.71757V19.3496C2.26153 19.8335 2.4538 20.2975 2.79555 20.6402C3.1373 20.9829 3.60077 21.1765 4.08474 21.1786H18.6747C19.1587 21.1765 19.6222 20.9829 19.9639 20.6402C20.3057 20.2975 20.498 19.8335 20.4987 19.3496V4.71757C20.498 4.2336 20.3057 3.7696 19.9639 3.42691C19.6222 3.08422 19.1587 2.89068 18.6747 2.88857ZM18.6747 19.3496H4.08474V7.45957H18.6747V19.3496Z" fill="#092041"/>
<path d="M10.1302 9.2373H6.36816V12.9993H10.1302V9.2373Z" fill="#092041"/>
<path d="M10.1302 13.7959H6.36816V17.5579H10.1302V13.7959Z" fill="#092041"/>
<path d="M15.6009 9.2373H11.8389V12.9993H15.6009V9.2373Z" fill="#092041"/>
<path d="M15.6009 13.7959H11.8389V17.5579H15.6009V13.7959Z" fill="#092041"/>
</svg>
