<svg width="57" height="54" viewBox="0 0 57 54" fill="none" xmlns="http://www.w3.org/2000/svg">
<path d="M46.465 0.894531H9.793C7.1963 0.896385 4.70649 1.92875 2.87035 3.76489C1.0342 5.60103 0.00185412 8.09083 0 10.6875V44.0545C0.00185412 46.6512 1.0342 49.141 2.87035 50.9772C4.70649 52.8133 7.1963 53.8457 9.793 53.8475H46.465C49.0617 53.8457 51.5515 52.8133 53.3876 50.9772C55.2238 49.141 56.2561 46.6512 56.258 44.0545V10.6875C56.2561 8.09083 55.2238 5.60103 53.3876 3.76489C51.5515 1.92875 49.0617 0.896385 46.465 0.894531ZM54.477 44.0545C54.4744 46.1786 53.6294 48.215 52.1274 49.7169C50.6255 51.2189 48.5891 52.0639 46.465 52.0665H9.793C7.66882 52.0641 5.63231 51.2193 4.13028 49.7172C2.62825 48.2152 1.78337 46.1787 1.78099 44.0545V10.6875C1.78337 8.56335 2.62825 6.52685 4.13028 5.02483C5.63231 3.5228 7.66882 2.67792 9.793 2.67554H46.465C48.5891 2.67818 50.6255 3.52315 52.1274 5.02512C53.6294 6.52708 54.4744 8.56343 54.477 10.6875V44.0545Z" fill="#246EE9"/>
<path d="M54.4778 10.6878V44.0548C54.4751 46.1789 53.6302 48.2152 52.1282 49.7172C50.6262 51.2192 48.5898 52.0641 46.4657 52.0668H9.79276C7.66857 52.0644 5.63208 51.2195 4.13005 49.7175C2.62803 48.2155 1.78314 46.179 1.78076 44.0548V10.6878C1.78314 8.56361 2.62803 6.5271 4.13005 5.02507C5.63208 3.52304 7.66857 2.67816 9.79276 2.67578H46.4668C48.5907 2.67869 50.6268 3.52379 52.1285 5.02573C53.6303 6.52767 54.4751 8.56386 54.4778 10.6878Z" fill="white"/>
<g opacity="0.27">
<path opacity="0.27" d="M37.3461 43.3835H7.32214C7.08597 43.3835 6.85944 43.2897 6.69244 43.1227C6.52544 42.9557 6.43164 42.7292 6.43164 42.493C6.43164 42.2569 6.52544 42.0304 6.69244 41.8634C6.85944 41.6964 7.08597 41.6025 7.32214 41.6025H37.3461C37.5823 41.6025 37.8088 41.6964 37.9758 41.8634C38.1428 42.0304 38.2366 42.2569 38.2366 42.493C38.2366 42.7292 38.1428 42.9557 37.9758 43.1227C37.8088 43.2897 37.5823 43.3835 37.3461 43.3835Z" fill="#246EE9"/>
</g>
<g opacity="0.27">
<path opacity="0.27" d="M32.0051 47.616H7.32214C7.08597 47.616 6.85944 47.5221 6.69244 47.3551C6.52544 47.1881 6.43164 46.9616 6.43164 46.7255C6.43164 46.4893 6.52544 46.2628 6.69244 46.0958C6.85944 45.9288 7.08597 45.835 7.32214 45.835H32.0051C32.2413 45.835 32.4678 45.9288 32.6348 46.0958C32.8018 46.2628 32.8956 46.4893 32.8956 46.7255C32.8956 46.9616 32.8018 47.1881 32.6348 47.3551C32.4678 47.5221 32.2413 47.616 32.0051 47.616Z" fill="#246EE9"/>
</g>
<g opacity="0.27">
<g opacity="0.27">
<path opacity="0.27" d="M46.7262 9.92065H20.7362C20.5 9.92065 20.2735 9.82682 20.1065 9.65982C19.9395 9.49282 19.8457 9.26633 19.8457 9.03015C19.8457 8.79398 19.9395 8.56747 20.1065 8.40047C20.2735 8.23347 20.5 8.13965 20.7362 8.13965H46.7262C46.9624 8.13965 47.1889 8.23347 47.3559 8.40047C47.5229 8.56747 47.6167 8.79398 47.6167 9.03015C47.6167 9.26633 47.5229 9.49282 47.3559 9.65982C47.1889 9.82682 46.9624 9.92065 46.7262 9.92065Z" fill="#246EE9"/>
</g>
<g opacity="0.27">
<path opacity="0.27" d="M46.7262 14.4685H20.7362C20.5 14.4685 20.2735 14.3747 20.1065 14.2077C19.9395 14.0407 19.8457 13.8142 19.8457 13.578C19.8457 13.3418 19.9395 13.1153 20.1065 12.9483C20.2735 12.7813 20.5 12.6875 20.7362 12.6875H46.7262C46.9624 12.6875 47.1889 12.7813 47.3559 12.9483C47.5229 13.1153 47.6167 13.3418 47.6167 13.578C47.6167 13.8142 47.5229 14.0407 47.3559 14.2077C47.1889 14.3747 46.9624 14.4685 46.7262 14.4685Z" fill="#246EE9"/>
</g>
<g opacity="0.27">
<path opacity="0.27" d="M12.8191 15.4809C11.9931 15.4809 11.1857 15.236 10.499 14.7771C9.81226 14.3183 9.27702 13.666 8.96095 12.903C8.64488 12.1399 8.56218 11.3003 8.72331 10.4902C8.88444 9.68014 9.28217 8.93604 9.86619 8.35202C10.4502 7.768 11.1943 7.37028 12.0044 7.20915C12.8144 7.04802 13.6541 7.13071 14.4172 7.44678C15.1802 7.76285 15.8324 8.29811 16.2913 8.98485C16.7501 9.67159 16.9951 10.479 16.9951 11.3049C16.9937 12.412 16.5534 13.4735 15.7705 14.2563C14.9876 15.0392 13.9262 15.4796 12.8191 15.4809ZM12.8191 8.90891C12.3444 8.90891 11.8804 9.04965 11.4857 9.31337C11.091 9.57709 10.7834 9.95191 10.6018 10.3905C10.4201 10.829 10.3726 11.3116 10.4652 11.7771C10.5578 12.2427 10.7864 12.6703 11.122 13.006C11.4577 13.3416 11.8853 13.5702 12.3508 13.6628C12.8164 13.7554 13.299 13.7079 13.7375 13.5262C14.176 13.3446 14.5509 13.037 14.8146 12.6423C15.0783 12.2476 15.2191 11.7836 15.2191 11.3089C15.2191 10.6724 14.9662 10.0619 14.5161 9.61185C14.066 9.16176 13.4556 8.90891 12.8191 8.90891Z" fill="#246EE9"/>
</g>
</g>
<path opacity="0.27" d="M39.8671 17.4072H16.3911C10.8683 17.4072 6.39111 21.8844 6.39111 27.4072V28.3272C6.39111 33.8501 10.8683 38.3272 16.3911 38.3272H39.8671C45.39 38.3272 49.8671 33.8501 49.8671 28.3272V27.4072C49.8671 21.8844 45.39 17.4072 39.8671 17.4072Z" fill="#246EE9"/>
<path opacity="0.43" d="M48.1393 36.7147L33.7022 26.0258C33.2232 25.6656 32.6299 25.4912 32.0321 25.5349C31.4344 25.5787 30.8727 25.8376 30.4512 26.2638L19.6212 36.7877C19.4967 36.9153 19.4098 37.0748 19.3702 37.2487C19.3307 37.4225 19.3401 37.6039 19.3972 37.7728C19.4438 37.9358 19.5409 38.0798 19.6747 38.1841C19.8084 38.2883 19.9718 38.3474 20.1412 38.3527H47.7022C47.8813 38.3457 48.0529 38.2796 48.1904 38.1647C48.3279 38.0499 48.4235 37.8927 48.4623 37.7177C48.5137 37.5374 48.5104 37.3458 48.4529 37.1672C48.3954 36.9887 48.2863 36.8312 48.1393 36.7147Z" fill="#246EE9"/>
<path d="M40.675 36.7816L24.3881 23.1397C24.1329 22.8891 23.8272 22.6959 23.4913 22.5732C23.1554 22.4505 22.7972 22.401 22.4406 22.4281C22.0841 22.4552 21.7374 22.5582 21.4239 22.7303C21.1105 22.9023 20.8374 23.1394 20.623 23.4257L9.94305 36.8637C9.8399 36.9982 9.7735 37.1572 9.75036 37.3252C9.72722 37.4931 9.74814 37.6642 9.81106 37.8217C9.86542 37.9717 9.96339 38.102 10.0924 38.196C10.2214 38.2899 10.3756 38.343 10.5351 38.3486H40.1591C40.3291 38.3433 40.493 38.2839 40.627 38.1791C40.7609 38.0742 40.858 37.9294 40.9041 37.7657C40.9605 37.5965 40.969 37.415 40.9286 37.2413C40.8882 37.0676 40.8004 36.9085 40.675 36.7816Z" fill="#246EE9"/>
</svg>
