<svg width="11" height="7" viewBox="0 0 11 7" fill="none" xmlns="http://www.w3.org/2000/svg">
<path d="M5.70898 6.87802L10.9419 1.31702C10.9693 1.27375 10.9852 1.22424 10.988 1.17313C10.9908 1.12202 10.9805 1.07102 10.958 1.02502C10.9376 0.980712 10.9051 0.943055 10.8643 0.916351C10.8234 0.889648 10.7758 0.874975 10.7271 0.874023H0.260986C0.212191 0.874975 0.16463 0.889648 0.123779 0.916351C0.0829285 0.943055 0.0504804 0.980712 0.0300294 1.02502C0.0102515 1.06586 -3.51265e-05 1.11066 9.01196e-08 1.15604C0.000230902 1.21274 0.0166464 1.26822 0.0471192 1.31604L5.27905 6.87704C5.30138 6.91411 5.33293 6.94475 5.37061 6.96603C5.40828 6.98732 5.45063 6.9985 5.4939 6.9985C5.53716 6.9985 5.57976 6.98732 5.61743 6.96603C5.6551 6.94475 5.68666 6.91411 5.70898 6.87704V6.87802Z" fill="#6A7A92"/>
</svg>
