<svg width="24" height="25" viewBox="0 0 24 25" fill="none" xmlns="http://www.w3.org/2000/svg">
<path d="M4.70711 3.72746C4.31658 3.33694 3.68342 3.33694 3.29289 3.72746C2.90237 4.11799 2.90237 4.75115 3.29289 5.14168L5.71706 7.56584C4.28639 8.64194 3.03925 10.12 2.10557 11.9874C1.96481 12.2689 1.96481 12.6003 2.10557 12.8818C4.26379 17.1982 8.09687 19.4346 12 19.4346C13.5552 19.4346 15.0992 19.0795 16.5306 18.3794L19.2929 21.1417C19.6834 21.5322 20.3166 21.5322 20.7071 21.1417C21.0976 20.7512 21.0976 20.118 20.7071 19.7275L4.70711 3.72746ZM15.0138 16.8626C14.0343 17.2457 13.0134 17.4346 12 17.4346C9.03121 17.4346 5.99806 15.8138 4.12966 12.4346C4.94721 10.9559 5.98778 9.81397 7.14838 8.99716L9.29237 11.1412C9.10495 11.5328 9 11.9714 9 12.4346C9 14.0914 10.3431 15.4346 12 15.4346C12.4631 15.4346 12.9018 15.3296 13.2934 15.1422L15.0138 16.8626Z" fill="#282C3F"/>
<path d="M18.5523 14.33C19.0353 13.7747 19.4784 13.1433 19.8703 12.4346C18.0019 9.05535 14.9687 7.43457 12 7.43457C11.888 7.43457 11.7759 7.43688 11.6637 7.4415L9.87939 5.65715C10.5774 5.50908 11.2875 5.43457 12 5.43457C15.9031 5.43457 19.7362 7.67092 21.8944 11.9874C22.0352 12.2689 22.0352 12.6003 21.8944 12.8818C21.3504 13.9697 20.7 14.9255 19.9689 15.7467L18.5523 14.33Z" fill="#282C3F"/>
</svg>
