<svg width="24" height="24" viewBox="0 0 24 24" fill="none" xmlns="http://www.w3.org/2000/svg">
<g clip-path="url(#clip0_5745_16392)">
<path fill-rule="evenodd" clip-rule="evenodd" d="M6.00337 6.50005C6.00337 6.32685 5.91375 6.16599 5.76648 6.07484C5.61921 5.9837 5.43526 5.97525 5.28025 6.05252L4.27708 6.55256C4.02992 6.67576 3.92942 6.976 4.05263 7.22317C4.17583 7.47033 4.47607 7.57082 4.72323 7.44762L5.00328 7.30802V10.0004H4.50015C4.22399 10.0004 4.00011 10.2242 4.00011 10.5004C4.00011 10.7766 4.22399 11.0005 4.50015 11.0005H6.5065C6.78267 11.0005 7.00655 10.7766 7.00655 10.5004C7.00655 10.2242 6.78267 10.0004 6.5065 10.0004H6.00337V6.50005ZM9 7.25C9 6.83579 9.33579 6.5 9.75 6.5H18.25C18.6642 6.5 19 6.83579 19 7.25C19 7.66421 18.6642 8 18.25 8H9.75C9.33579 8 9 7.66421 9 7.25ZM9 12.25C9 11.8358 9.33579 11.5 9.75 11.5H18.25C18.6642 11.5 19 11.8358 19 12.25C19 12.6642 18.6642 13 18.25 13H9.75C9.33579 13 9 12.6642 9 12.25ZM9 17.25C9 16.8358 9.33579 16.5 9.75 16.5H18.25C18.6642 16.5 19 16.8358 19 17.25C19 17.6642 18.6642 18 18.25 18H9.75C9.33579 18 9 17.6642 9 17.25ZM4.9244 14.32L4.92703 14.3161C4.93131 14.3099 4.9398 14.2981 4.95239 14.2825C4.978 14.2507 5.01787 14.2066 5.07075 14.1628C5.17619 14.0753 5.31709 14.0007 5.50025 14.0007C5.69557 14.0007 5.80717 14.0693 5.87542 14.1467C5.95169 14.2332 6.00312 14.366 6.00312 14.5231C6.00312 14.9755 5.73398 15.2053 5.20308 15.6005L5.16805 15.6265C4.6919 15.9803 4.00012 16.4944 4.00012 17.4999C4.00012 17.6325 4.05281 17.7597 4.14658 17.8535C4.24036 17.9473 4.36755 18 4.50017 18H6.50309C6.77926 18 7.00321 17.7761 7.00321 17.4999C7.00321 17.2238 6.77933 16.9999 6.50317 16.9999H5.14611C5.27778 16.8026 5.49742 16.6281 5.80025 16.4027L5.84691 16.368C6.31766 16.0188 7.00321 15.5101 7.00321 14.5231C7.00321 14.1578 6.88489 13.7794 6.62556 13.4853C6.35821 13.1821 5.96836 13.0006 5.50027 13.0006C5.02002 13.0006 4.66087 13.2033 4.43211 13.3932C4.31789 13.4879 4.23213 13.5825 4.17389 13.6547C4.14454 13.6911 4.12155 13.7226 4.10483 13.7468C4.09645 13.7589 4.08959 13.7692 4.08426 13.7774L4.07737 13.7883L4.07476 13.7925L4.07367 13.7942L4.07294 13.7954C3.92963 14.0315 4.00461 14.3394 4.24069 14.4827C4.47501 14.625 4.77975 14.5519 4.9244 14.32ZM4.50012 14.0552L4.07294 13.7954C4.07294 13.7954 4.07271 13.7958 4.50012 14.0552Z" fill="#282C3F"/>
</g>
<defs>
<clipPath id="clip0_5745_16392">
<rect width="16" height="16" fill="white" transform="translate(4 4)"/>
</clipPath>
</defs>
</svg>
