<svg width="24" height="24" viewBox="0 0 24 24" fill="none" xmlns="http://www.w3.org/2000/svg">
<path fill-rule="evenodd" clip-rule="evenodd" d="M6 8C6.55228 8 7 7.55228 7 7C7 6.44772 6.55228 6 6 6C5.44772 6 5 6.44772 5 7C5 7.55228 5.44772 8 6 8ZM9.75 6.5C9.33579 6.5 9 6.83579 9 7.25C9 7.66421 9.33579 8 9.75 8H18.25C18.6642 8 19 7.66421 19 7.25C19 6.83579 18.6642 6.5 18.25 6.5H9.75ZM9.75 11.5C9.33579 11.5 9 11.8358 9 12.25C9 12.6642 9.33579 13 9.75 13H18.25C18.6642 13 19 12.6642 19 12.25C19 11.8358 18.6642 11.5 18.25 11.5H9.75ZM9.75 16.5C9.33579 16.5 9 16.8358 9 17.25C9 17.6642 9.33579 18 9.75 18H18.25C18.6642 18 19 17.6642 19 17.25C19 16.8358 18.6642 16.5 18.25 16.5H9.75ZM7 12C7 12.5523 6.55228 13 6 13C5.44772 13 5 12.5523 5 12C5 11.4477 5.44772 11 6 11C6.55228 11 7 11.4477 7 12ZM6 18C6.55228 18 7 17.5523 7 17C7 16.4477 6.55228 16 6 16C5.44772 16 5 16.4477 5 17C5 17.5523 5.44772 18 6 18Z" fill="#282C3F"/>
</svg>
