<svg width="16" height="16" viewBox="0 0 16 16" fill="none" xmlns="http://www.w3.org/2000/svg">
<path d="M9.41506 7.9992L15.7071 1.7072C15.8946 1.51956 15.9999 1.26512 15.9998 0.999849C15.9997 0.734579 15.8942 0.480211 15.7066 0.292703C15.5189 0.105195 15.2645 -9.37028e-05 14.9992 6.2574e-08C14.7339 9.3828e-05 14.4796 0.105562 14.2921 0.293203L8.00006 6.5852L1.70806 0.293203C1.52042 0.105562 1.26592 0.000146494 1.00056 0.000146494C0.735192 0.000146494 0.480697 0.105562 0.293056 0.293203C0.105415 0.480843 0 0.735339 0 1.0007C0 1.26607 0.105415 1.52056 0.293056 1.7082L6.58506 7.9992L0.293056 14.2922C0.105415 14.4798 0 14.7343 0 14.9997C0 15.2651 0.105415 15.5196 0.293056 15.7072C0.480697 15.8948 0.735192 16.0003 1.00056 16.0003C1.26592 16.0003 1.52042 15.8948 1.70806 15.7072L8.00006 9.4142L14.2921 15.7062C14.385 15.7991 14.4953 15.8728 14.6167 15.9231C14.7381 15.9734 14.8682 15.9993 14.9996 15.9993C15.131 15.9993 15.2611 15.9734 15.3825 15.9231C15.5038 15.8728 15.6141 15.7991 15.7071 15.7062C15.8 15.6133 15.8737 15.503 15.9239 15.3816C15.9742 15.2602 16.0001 15.1301 16.0001 14.9987C16.0001 14.8673 15.9742 14.7372 15.9239 14.6158C15.8737 14.4944 15.8 14.3841 15.7071 14.2912L9.41506 7.9992Z" fill="#686B78"/>
</svg>
