<svg width="85" height="85" viewBox="0 0 85 85" fill="none" xmlns="http://www.w3.org/2000/svg">
<path opacity="0.1" d="M42.407 85C65.8278 85 84.814 65.9721 84.814 42.5C84.814 19.0279 65.8278 0 42.407 0C18.9863 0 0 19.0279 0 42.5C0 65.9721 18.9863 85 42.407 85Z" fill="white"/>
<path d="M38.3753 29C35.2687 29 32.75 31.5184 32.75 34.6252C32.75 37.7321 35.2684 40.2505 38.3753 40.2505C41.4821 40.2505 44.0005 37.7321 44.0005 34.6252C44.0005 31.5184 41.4821 29 38.3753 29Z" fill="white"/>
<path d="M38.3751 42.5C35.0931 42.5 31.9455 43.8038 29.6245 46.1245C27.3036 48.4452 26 51.5929 26 54.8751C26 55.1734 26.1185 55.4597 26.3295 55.6706C26.5404 55.8816 26.8267 56.0001 27.125 56.0001H49.625C50.2463 56.0001 50.75 55.4965 50.75 54.8751C50.75 51.5931 49.4462 48.4455 47.1255 46.1245C44.8047 43.8036 41.6571 42.5 38.3749 42.5L38.3751 42.5Z" fill="white"/>
<path d="M50.75 41.375C50.75 40.7536 51.2536 40.25 51.875 40.25H55.25V36.875C55.25 36.2536 55.7536 35.75 56.375 35.75C56.9964 35.75 57.5 36.2536 57.5 36.875V40.25H60.875C61.4963 40.25 62 40.7536 62 41.375C62 41.9964 61.4963 42.5 60.875 42.5H57.5V45.875C57.5 46.4964 56.9964 47 56.375 47C55.7536 47 55.25 46.4964 55.25 45.875V42.5H51.875C51.2536 42.5 50.75 41.9964 50.75 41.375Z" fill="white"/>
</svg>
