<svg width="28" height="31" viewBox="0 0 28 31" fill="none" xmlns="http://www.w3.org/2000/svg">
<path d="M9.606 26.363V25.473H1.446C1.13045 25.464 0.830867 25.3322 0.610877 25.1059C0.390887 24.8795 0.267822 24.5762 0.267822 24.2605C0.267822 23.9449 0.390887 23.6416 0.610877 23.4152C0.830867 23.1888 1.13045 23.0571 1.446 23.048H2.469V11.808C2.42701 8.74614 3.60066 5.7925 5.7327 3.59448C7.86474 1.39645 10.7813 0.133358 13.843 0.0820312C16.9054 0.132309 19.8228 1.39498 21.9555 3.59315C24.0883 5.79132 25.2622 8.74555 25.22 11.808V23.048H26.554C26.8695 23.0571 27.1691 23.1888 27.3891 23.4152C27.6091 23.6416 27.7322 23.9449 27.7322 24.2605C27.7322 24.5762 27.6091 24.8795 27.3891 25.1059C27.1691 25.3322 26.8695 25.464 26.554 25.473H18.237V26.363C18.2528 27.5247 17.8073 28.6452 16.9983 29.479C16.1892 30.3128 15.0826 30.7918 13.921 30.811C12.7595 30.7916 11.6532 30.3124 10.8444 29.4787C10.0355 28.6449 9.59022 27.5245 9.606 26.363ZM11.96 26.363C11.9541 26.6243 12.0005 26.8842 12.0964 27.1273C12.1923 27.3705 12.3359 27.592 12.5186 27.7789C12.7013 27.9658 12.9195 28.1143 13.1605 28.2157C13.4014 28.3171 13.6601 28.3693 13.9215 28.3693C14.1829 28.3693 14.4416 28.3171 14.6825 28.2157C14.9235 28.1143 15.1417 27.9658 15.3244 27.7789C15.5071 27.592 15.6507 27.3705 15.7466 27.1273C15.8425 26.8842 15.8889 26.6243 15.883 26.363V25.473H11.96V26.363ZM22.869 23.048V11.808C22.9024 9.37904 21.9712 7.03593 20.2795 5.29254C18.5879 3.54915 16.2739 2.54778 13.845 2.50803C11.4161 2.54778 9.10211 3.54915 7.41045 5.29254C5.7188 7.03593 4.78758 9.37904 4.821 11.808V23.048H22.869Z" fill="#6B6C6E"/>
</svg>
