<svg width="16" height="20" viewBox="0 0 16 20" fill="none" xmlns="http://www.w3.org/2000/svg">
<path d="M8 20C8.52995 19.9984 9.03773 19.7872 9.41247 19.4125C9.7872 19.0377 9.99842 18.5299 10 18H6C6.00158 18.5299 6.2128 19.0377 6.58753 19.4125C6.96227 19.7872 7.47005 19.9984 8 20ZM14 14V9C14 5.93 12.37 3.36 9.5 2.68V2C9.5 1.60218 9.34196 1.22064 9.06066 0.93934C8.77936 0.658035 8.39782 0.5 8 0.5C7.60218 0.5 7.22064 0.658035 6.93934 0.93934C6.65804 1.22064 6.5 1.60218 6.5 2V2.68C3.64 3.36 2 5.92 2 9V14L0 16V17H16V16L14 14Z" fill="white"/>
</svg>
