<svg width="86" height="85" viewBox="0 0 86 85" fill="none" xmlns="http://www.w3.org/2000/svg">
<path opacity="0.1" d="M42.9712 85C66.7035 85 85.9424 65.9721 85.9424 42.5C85.9424 19.0279 66.7035 0 42.9712 0C19.2389 0 0 19.0279 0 42.5C0 65.9721 19.2389 85 42.9712 85Z" fill="white"/>
<path d="M35.8201 27.96C35.8201 26.6445 36.3426 25.3828 37.2729 24.4528C38.2029 23.5226 39.4645 23 40.7801 23C42.0956 23 43.3572 23.5226 44.2872 24.4528C45.2175 25.3828 45.74 26.6445 45.74 27.96C45.74 29.2755 45.2175 30.5371 44.2872 31.4671C43.3572 32.3974 42.0956 32.92 40.7801 32.92C39.4645 32.92 38.2029 32.3974 37.2729 31.4671C36.3426 30.5371 35.8201 29.2755 35.8201 27.96ZM35.2001 35.8712C35.5414 35.5672 35.9828 35.3995 36.4401 35.4001H45.12C45.5731 35.3909 46.014 35.5473 46.36 35.8402L50.7 39.5601C50.8894 39.7212 51.0435 39.9197 51.1526 40.143L54.8726 47.583C54.9941 47.8449 55.0514 48.1316 55.04 48.42H56.28C56.4444 48.42 56.6022 48.4853 56.7184 48.6016C56.8347 48.7178 56.9 48.8756 56.9 49.04V51.52H59.1506C59.6208 51.5233 60 51.9055 60 52.3755V58.1105C59.9967 58.5783 59.6183 58.9566 59.1506 58.9599H48.4554C47.9854 58.9599 47.6032 58.5807 47.5999 58.1105V52.3755C47.5999 52.1485 47.6901 51.931 47.8504 51.7704C48.0109 51.6102 48.2285 51.5199 48.4554 51.5199H50.6999V49.04C50.7018 48.7756 50.8712 48.5417 51.1215 48.457L47.9658 42.1455L45.1199 39.74V60.8199C45.1199 61.4845 44.7654 62.0984 44.1899 62.4308C43.6145 62.7629 42.9054 62.7629 42.3299 62.4308C41.7545 62.0984 41.4 61.4845 41.4 60.8199V50.28H40.0484L36.3284 60.1999C36.2006 60.5617 35.9639 60.875 35.6509 61.097C35.3378 61.319 34.9636 61.4388 34.58 61.4399C34.3683 61.4363 34.1585 61.3965 33.96 61.322C33.4997 61.1554 33.1238 60.8138 32.9137 60.3715C32.7036 59.9292 32.6763 59.4222 32.8379 58.9599L36.44 49.3191V39.74L32.72 43.0509V48.42C32.72 49.0845 32.3654 49.6984 31.79 50.0308C31.2146 50.363 30.5054 50.363 29.93 50.0308C29.3546 49.6984 29 49.0845 29 48.42V42.22C28.9992 41.6899 29.2248 41.1846 29.62 40.8311L35.2001 35.8712ZM51.94 49.6599V51.5199H55.66V49.6599H51.94Z" fill="white"/>
</svg>
