<svg width="16" height="17" viewBox="0 0 16 17" fill="none" xmlns="http://www.w3.org/2000/svg">
<path d="M14.9345 7.84665H8.94248V1.85365C8.9467 1.72053 8.92413 1.58792 8.8761 1.46369C8.82807 1.33946 8.75557 1.22616 8.6629 1.1305C8.57023 1.03484 8.45927 0.958777 8.33663 0.906835C8.21399 0.854892 8.08216 0.828125 7.94898 0.828125C7.81579 0.828125 7.68396 0.854892 7.56132 0.906835C7.43868 0.958777 7.32773 1.03484 7.23505 1.1305C7.14238 1.22616 7.06988 1.33946 7.02185 1.46369C6.97383 1.58792 6.95125 1.72053 6.95548 1.85365V7.84565H0.962477C0.70444 7.85384 0.459711 7.9621 0.280078 8.14752C0.100445 8.33294 0 8.58098 0 8.83915C0 9.09732 0.100445 9.34536 0.280078 9.53078C0.459711 9.7162 0.70444 9.82446 0.962477 9.83265H6.95448V15.8256C6.96266 16.0837 7.07092 16.3284 7.25635 16.508C7.44177 16.6877 7.68981 16.7881 7.94798 16.7881C8.20614 16.7881 8.45418 16.6877 8.63961 16.508C8.82503 16.3284 8.93329 16.0837 8.94148 15.8256V9.83365H14.9345C15.1925 9.82546 15.4372 9.7172 15.6169 9.53178C15.7965 9.34635 15.897 9.09832 15.897 8.84015C15.897 8.58198 15.7965 8.33394 15.6169 8.14852C15.4372 7.9631 15.1925 7.85484 14.9345 7.84665Z" fill="white"/>
</svg>
