<svg width="19" height="18" viewBox="0 0 19 18" fill="none" xmlns="http://www.w3.org/2000/svg">
<g opacity="0.56">
<path opacity="0.56" d="M15.795 8.043C15.795 9.43597 15.3819 10.7977 14.608 11.9559C13.8341 13.1141 12.7342 14.0168 11.4472 14.5499C10.1603 15.083 8.74417 15.2224 7.37797 14.9507C6.01176 14.6789 4.75682 14.0081 3.77183 13.0232C2.78685 12.0382 2.11607 10.7832 1.84432 9.41702C1.57256 8.05081 1.71204 6.6347 2.2451 5.34776C2.77817 4.06082 3.68089 2.96085 4.83911 2.18696C5.99732 1.41306 7.35901 1 8.75199 1C10.6199 1 12.4113 1.74203 13.7321 3.06285C15.053 4.38367 15.795 6.17508 15.795 8.043Z" stroke="#42475C" stroke-width="2" stroke-linecap="round" stroke-linejoin="round"/>
<path opacity="0.56" d="M17.5512 16.8417L13.7212 13.0117" stroke="#42475C" stroke-width="2" stroke-linecap="round" stroke-linejoin="round"/>
</g>
</svg>
