<svg width="11" height="14" viewBox="0 0 11 14" fill="none" xmlns="http://www.w3.org/2000/svg">
<path d="M5.70898 13.878L10.9419 8.31702C10.9693 8.27375 10.9852 8.22424 10.988 8.17313C10.9908 8.12202 10.9805 8.07102 10.958 8.02502C10.9376 7.98071 10.9051 7.94305 10.8643 7.91635C10.8234 7.88965 10.7758 7.87498 10.7271 7.87402H0.260986C0.212191 7.87498 0.16463 7.88965 0.123779 7.91635C0.0829285 7.94305 0.0504804 7.98071 0.0300294 8.02502C0.0102515 8.06586 -3.51265e-05 8.11066 9.01196e-08 8.15604C0.000230902 8.21274 0.0166464 8.26822 0.0471192 8.31604L5.27905 13.877C5.30138 13.9141 5.33293 13.9447 5.37061 13.966C5.40828 13.9873 5.45063 13.9985 5.4939 13.9985C5.53716 13.9985 5.57976 13.9873 5.61743 13.966C5.6551 13.9447 5.68666 13.9141 5.70898 13.877V13.878Z" fill="#6A7A92"/>
<path d="M5.26291 0.121674L0.0568528 5.68268C0.0299395 5.72611 0.0144824 5.77561 0.0116867 5.82663C0.00889108 5.87765 0.0189773 5.92855 0.0409836 5.97467C0.0612643 6.0189 0.0935668 6.05652 0.134245 6.08322C0.174924 6.10993 0.222313 6.12465 0.270964 6.12567H10.6819C10.7305 6.12477 10.7781 6.11009 10.8188 6.08337C10.8595 6.05665 10.8919 6.01898 10.9121 5.97467C10.9319 5.93383 10.9419 5.88903 10.9419 5.84366C10.9419 5.78705 10.9261 5.73158 10.896 5.68365L5.69089 0.12265C5.66882 0.0855579 5.63758 0.0548437 5.60007 0.0335083C5.56255 0.0121729 5.52018 0.000976563 5.47702 0.000976562C5.43386 0.000976562 5.39149 0.0121729 5.35397 0.0335083C5.31646 0.0548437 5.28497 0.0855579 5.26291 0.12265V0.121674Z" fill="#6A7A92"/>
</svg>
