<svg width="85" height="85" viewBox="0 0 85 85" fill="none" xmlns="http://www.w3.org/2000/svg">
<path opacity="0.1" d="M42.5 85C65.9721 85 85 65.9721 85 42.5C85 19.0279 65.9721 0 42.5 0C19.0279 0 0 19.0279 0 42.5C0 65.9721 19.0279 85 42.5 85Z" fill="white"/>
<path d="M36.9854 30.4326H49.1053V36.2036H36.9854V30.4326Z" fill="white"/>
<path d="M51.244 32.8125V37.7125H34.849V32.8125H30.499V62.9995H55.591V32.8125H51.244ZM41.187 54.2625L39.675 55.6025L38.149 54.2505L36.624 55.6025L35.112 54.2625L36.637 52.9105L35.112 51.5585L36.624 50.2185L38.149 51.5705L39.674 50.2185L41.186 51.5585L39.661 52.9105L41.187 54.2625ZM37.475 47.4745L34.867 44.5845L36.537 43.4015L37.494 44.4615L39.865 41.8945L41.52 43.0945L37.475 47.4745ZM51.099 53.8585H43.687V51.9635H51.1L51.099 53.8585ZM51.099 45.9895H43.687V44.0935H51.1L51.099 45.9895Z" fill="white"/>
</svg>
