<svg width="85" height="85" viewBox="0 0 85 85" fill="none" xmlns="http://www.w3.org/2000/svg">
<path opacity="0.1" d="M42.5 85C65.9721 85 85 65.9721 85 42.5C85 19.0279 65.9721 0 42.5 0C19.0279 0 0 19.0279 0 42.5C0 65.9721 19.0279 85 42.5 85Z" fill="white"/>
<path d="M29.4798 48.013C29.3816 48.209 29.3475 48.431 29.3825 48.6475C29.4175 48.864 29.5198 49.0639 29.6748 49.219L29.9298 49.474C30.6668 48.601 31.5298 47.653 32.5678 46.611C32.6418 46.537 32.7168 46.502 32.7908 46.434L31.1498 44.792C30.1958 46.519 29.6388 47.697 29.4798 48.013Z" fill="white"/>
<path d="M38.4684 52.513C37.4244 53.557 36.4784 54.418 35.6094 55.156L35.9554 55.502C36.1116 55.6583 36.3135 55.761 36.5319 55.7951C36.7503 55.8293 36.9739 55.7932 37.1704 55.692C37.7104 55.413 38.5604 55.014 40.3644 54.009L38.6454 52.29C38.5774 52.364 38.5424 52.44 38.4684 52.513Z" fill="white"/>
<path d="M37.9134 47.1692C37.1594 46.4152 35.0394 47.0912 34.0434 48.0872C31.833 50.1351 29.9709 52.5295 28.5304 55.1762C28.4357 55.3713 28.4042 55.5911 28.4403 55.805C28.4764 56.0189 28.5783 56.2162 28.7318 56.3695C28.8853 56.5227 29.0827 56.6243 29.2967 56.6601C29.5106 56.6959 29.7304 56.6641 29.9254 56.5692C32.5644 55.118 34.9515 53.25 36.9944 51.0372C38.0944 49.9372 38.6304 47.8852 37.9144 47.1692H37.9134Z" fill="white"/>
<path d="M27.5364 39.0853L24.5854 42.0353C24.4224 42.1976 24.3177 42.4092 24.2874 42.6372C24.2571 42.8651 24.3031 43.0967 24.418 43.2959C24.533 43.4951 24.7106 43.6507 24.9232 43.7385C25.1358 43.8263 25.3714 43.8413 25.5934 43.7813C26.8612 43.3533 28.2115 43.228 29.5364 43.4153C30.8196 41.1203 32.2628 38.9185 33.8554 36.8263C32.9704 36.2593 30.0464 36.5753 27.5364 39.0843V39.0853Z" fill="white"/>
<path d="M41.9395 60.6939C42.1355 60.793 42.3577 60.8276 42.5745 60.7927C42.7913 60.7579 42.9915 60.6554 43.1465 60.4999L46.0975 57.5489C48.3825 55.2639 48.7845 52.3149 48.2655 51.3799C46.1643 52.9523 43.9615 54.3841 41.6715 55.6659C41.7766 56.9878 41.6754 58.3181 41.3715 59.6089C41.3394 59.8266 41.377 60.0488 41.4791 60.2437C41.5811 60.4387 41.7423 60.5963 41.9395 60.6939Z" fill="white"/>
<path d="M44.9936 35.6605C44.556 36.0982 44.2579 36.656 44.1372 37.2631C44.0165 37.8702 44.0786 38.4995 44.3155 39.0714C44.5524 39.6433 44.9536 40.1321 45.4683 40.476C45.983 40.8199 46.5881 41.0035 47.2072 41.0035C47.8262 41.0035 48.4313 40.8199 48.946 40.476C49.4607 40.1321 49.8619 39.6433 50.0988 39.0714C50.3358 38.4995 50.3978 37.8702 50.2771 37.2631C50.1564 36.656 49.8583 36.0982 49.4207 35.6605C48.8331 35.0743 48.0371 34.7451 47.2072 34.7451C46.3772 34.7451 45.5812 35.0743 44.9936 35.6605Z" fill="white"/>
<path d="M59.83 26.2123C59.8115 25.9631 59.704 25.7289 59.5273 25.5523C59.3505 25.3757 59.1162 25.2685 58.867 25.2503C56.2949 25.0672 53.7112 25.3681 51.25 26.1373C51.5196 28.0799 52.4334 29.8757 53.845 31.2373C55.2318 32.6692 57.0667 33.5835 59.045 33.8283C59.7591 31.3582 60.026 28.7803 59.833 26.2163L59.83 26.2123Z" fill="white"/>
<path d="M52.3714 32.7092C50.748 31.1323 49.6525 29.0916 49.2354 26.8672C42.9704 29.4362 36.9724 35.0482 32.2354 42.9302L34.5903 45.2852C36.1993 44.6322 38.1524 44.4592 39.3904 45.6982C40.6284 46.9372 40.4553 48.8912 39.8023 50.4982L42.2343 52.9302C48.2993 49.2752 55.3603 43.5162 58.3624 35.8552C56.0842 35.4692 53.9874 34.3697 52.3743 32.7152L52.3714 32.7092ZM50.8943 41.5622C50.1648 42.2919 49.2352 42.7889 48.2232 42.9903C47.2111 43.1918 46.1621 43.0885 45.2087 42.6937C44.2554 42.2989 43.4405 41.6302 42.8672 40.7722C42.2939 39.9143 41.9879 38.9056 41.9879 37.8737C41.9879 36.8418 42.2939 35.8331 42.8672 34.9751C43.4405 34.1172 44.2554 33.4485 45.2087 33.0537C46.1621 32.6589 47.2111 32.5556 48.2232 32.757C49.2352 32.9584 50.1648 33.4554 50.8943 34.1852C51.871 35.1643 52.4194 36.4908 52.4194 37.8737C52.4194 39.2566 51.871 40.5831 50.8943 41.5622Z" fill="white"/>
</svg>
