<svg width="24" height="24" viewBox="0 0 24 24" fill="none" xmlns="http://www.w3.org/2000/svg">
<path d="M17 4.88889C17 4.39797 16.6269 4 16.1667 4C15.7064 4 15.3333 4.39797 15.3333 4.88889V11.1111C15.3333 13.0748 13.8409 14.6667 12 14.6667C10.1591 14.6667 8.66667 13.0748 8.66667 11.1111L8.66667 4.88889C8.66667 4.39797 8.29357 4 7.83333 4C7.3731 4 7 4.39797 7 4.88889V11.1111C7 14.0566 9.23858 16.4444 12 16.4444C14.7614 16.4444 17 14.0566 17 11.1111V4.88889ZM7.83333 18.2222C7.3731 18.2222 7 18.6202 7 19.1111C7 19.602 7.3731 20 7.83333 20H16.1667C16.6269 20 17 19.602 17 19.1111C17 18.6202 16.6269 18.2222 16.1667 18.2222H7.83333Z" fill="#282C3F"/>
</svg>
