<svg width="11" height="7" viewBox="0 0 11 7" fill="none" xmlns="http://www.w3.org/2000/svg">
<path d="M5.2634 0.121674L0.057341 5.68268C0.0304278 5.72611 0.0149707 5.77561 0.012175 5.82663C0.00937936 5.87765 0.0194656 5.92855 0.0414719 5.97467C0.0617526 6.0189 0.0940551 6.05652 0.134734 6.08322C0.175412 6.10993 0.222801 6.12465 0.271452 6.12567H10.6823C10.731 6.12477 10.7786 6.11009 10.8193 6.08337C10.86 6.05665 10.8924 6.01898 10.9126 5.97467C10.9323 5.93383 10.9424 5.88903 10.9424 5.84366C10.9424 5.78705 10.9266 5.73158 10.8965 5.68365L5.69137 0.12265C5.66931 0.0855579 5.63807 0.0548437 5.60055 0.0335083C5.56304 0.0121729 5.52067 0.000976563 5.47751 0.000976562C5.43435 0.000976562 5.39198 0.0121729 5.35446 0.0335083C5.31694 0.0548437 5.28546 0.0855579 5.2634 0.12265V0.121674Z" fill="#6A7A92"/>
</svg>
