<svg width="133" height="133" viewBox="0 0 133 133" fill="none" xmlns="http://www.w3.org/2000/svg">
<g filter="url(#filter0_d_10569_198245)">
<path d="M66.5 88C89.9721 88 109 68.9721 109 45.5C109 22.0279 89.9721 3 66.5 3C43.0279 3 24 22.0279 24 45.5C24 68.9721 43.0279 88 66.5 88Z" fill="white"/>
</g>
<path d="M66.3365 53.394C65.8934 53.394 65.4683 53.2179 65.155 52.9046C64.8416 52.5912 64.6655 52.1662 64.6655 51.723V31.672C64.6655 31.2288 64.8416 30.8038 65.155 30.4904C65.4683 30.177 65.8934 30.001 66.3365 30.001C66.7797 30.001 67.2047 30.177 67.5181 30.4904C67.8315 30.8038 68.0075 31.2288 68.0075 31.672V51.723C68.0075 52.1662 67.8315 52.5912 67.5181 52.9046C67.2047 53.2179 66.7797 53.394 66.3365 53.394Z" fill="#0855CC"/>
<path d="M73.0197 40.0273C72.8001 40.0277 72.5826 39.9848 72.3796 39.9011C72.1766 39.8174 71.9921 39.6944 71.8367 39.5393L66.3367 34.0393L60.8367 39.5393C60.5222 39.8468 60.099 40.0179 59.6591 40.0154C59.2192 40.0129 58.7981 39.8371 58.487 39.526C58.1759 39.2149 58.0001 38.7938 57.9976 38.3539C57.9951 37.914 58.1662 37.4908 58.4737 37.1763L65.1577 30.4923C65.4711 30.179 65.8961 30.0029 66.3392 30.0029C66.7824 30.0029 67.2074 30.179 67.5207 30.4923L74.2047 37.1763C74.4379 37.4101 74.5967 37.7079 74.6608 38.0319C74.7249 38.3559 74.6916 38.6916 74.565 38.9967C74.4384 39.3018 74.2242 39.5625 73.9496 39.7459C73.6749 39.9293 73.352 40.0273 73.0217 40.0273H73.0197Z" fill="#0855CC"/>
<path d="M74.0049 60.8838C75.1095 60.8838 76.0049 59.9884 76.0049 58.8838C76.0049 57.7792 75.1095 56.8838 74.0049 56.8838H59.0049C57.9003 56.8838 57.0049 57.7792 57.0049 58.8838C57.0049 59.9884 57.9003 60.8838 59.0049 60.8838H74.0049Z" fill="#0855CC"/>
<defs>
<filter id="filter0_d_10569_198245" x="0" y="0" width="133" height="133" filterUnits="userSpaceOnUse" color-interpolation-filters="sRGB">
<feFlood flood-opacity="0" result="BackgroundImageFix"/>
<feColorMatrix in="SourceAlpha" type="matrix" values="0 0 0 0 0 0 0 0 0 0 0 0 0 0 0 0 0 0 127 0" result="hardAlpha"/>
<feOffset dy="21"/>
<feGaussianBlur stdDeviation="12"/>
<feColorMatrix type="matrix" values="0 0 0 0 0 0 0 0 0 0 0 0 0 0 0 0 0 0 0.071 0"/>
<feBlend mode="normal" in2="BackgroundImageFix" result="effect1_dropShadow_10569_198245"/>
<feBlend mode="normal" in="SourceGraphic" in2="effect1_dropShadow_10569_198245" result="shape"/>
</filter>
</defs>
</svg>
