<svg width="18" height="24" viewBox="0 0 18 24" fill="none" xmlns="http://www.w3.org/2000/svg">
<path d="M9 12C12.3137 12 15 9.31371 15 6C15 2.68629 12.3137 0 9 0C5.68629 0 3 2.68629 3 6C3 9.31371 5.68629 12 9 12Z" fill="white"/>
<path d="M9 14C6.61386 14.0026 4.32622 14.9517 2.63896 16.639C0.951708 18.3262 0.00264685 20.6139 0 23C0 23.2652 0.105357 23.5196 0.292893 23.7071C0.48043 23.8946 0.734784 24 1 24H17C17.2652 24 17.5196 23.8946 17.7071 23.7071C17.8946 23.5196 18 23.2652 18 23C17.9974 20.6139 17.0483 18.3262 15.361 16.639C13.6738 14.9517 11.3861 14.0026 9 14Z" fill="white"/>
</svg>
