<svg width="24" height="24" viewBox="0 0 24 24" fill="none" xmlns="http://www.w3.org/2000/svg">
<path d="M11.9999 4.1416C9.57306 4.16911 7.21229 4.93603 5.2326 6.34004C3.2529 7.74405 1.74843 9.71838 0.919922 11.9996C1.74843 14.2808 3.2529 16.2552 5.2326 17.6592C7.21229 19.0632 9.57306 19.8301 11.9999 19.8576C14.4268 19.8301 16.7876 19.0632 18.7672 17.6592C20.7469 16.2552 22.2514 14.2808 23.0799 11.9996C22.2514 9.71838 20.7469 7.74405 18.7672 6.34004C16.7876 4.93603 14.4268 4.16911 11.9999 4.1416ZM11.9999 17.2416C10.6377 17.2138 9.34217 16.6464 8.39793 15.6641C7.4537 14.6818 6.93793 13.3649 6.96392 12.0026C6.93713 10.6398 7.45253 9.32213 8.39686 8.33918C9.34118 7.35623 10.6371 6.78844 11.9999 6.7606C13.3622 6.78844 14.6577 7.35582 15.6019 8.33811C16.5461 9.32041 17.0619 10.6373 17.0359 11.9996C17.0627 13.3624 16.5473 14.6801 15.603 15.663C14.6587 16.646 13.3627 17.2138 11.9999 17.2416ZM11.9999 8.8596C11.595 8.86714 11.1955 8.95447 10.8244 9.11658C10.4533 9.27869 10.1178 9.5124 9.83706 9.80434C9.55636 10.0963 9.33599 10.4407 9.18857 10.8179C9.04115 11.1951 8.96957 11.5977 8.97792 12.0026C8.96136 12.4097 9.02724 12.816 9.17162 13.197C9.316 13.5781 9.53589 13.926 9.8181 14.2199C10.1003 14.5138 10.439 14.7477 10.8138 14.9074C11.1887 15.0672 11.592 15.1495 11.9994 15.1495C12.4069 15.1495 12.8102 15.0672 13.185 14.9074C13.5598 14.7477 13.8985 14.5138 14.1807 14.2199C14.463 13.926 14.6828 13.5781 14.8272 13.197C14.9716 12.816 15.0375 12.4097 15.0209 12.0026C15.0297 11.5975 14.9584 11.1947 14.8112 10.8172C14.6641 10.4397 14.4438 10.095 14.1632 9.80274C13.8826 9.5105 13.5471 9.2765 13.1758 9.11414C12.8046 8.95179 12.405 8.86427 11.9999 8.8566V8.8596Z" fill="#515F77"/>
</svg>
